<?xml version="1.0" encoding="iso-8859-1"?>
<!-- Generator: Adobe Illustrator 19.0.0, SVG Export Plug-In . SVG Version: 6.00 Build 0)  -->
<svg version="1.1" id="Capa_1" xmlns="http://www.w3.org/2000/svg" xmlns:xlink="http://www.w3.org/1999/xlink" x="0px" y="0px"
	 viewBox="0 0 512 512" style="enable-background:new 0 0 512 512;" xml:space="preserve">
<path style="fill:#FF6C6C;" d="M448.4,0H63.6c-8.267,0-14.969,6.702-14.969,14.969v480.999c0,5.187,2.686,10.005,7.099,12.734
	c4.414,2.727,9.924,2.974,14.564,0.655L256,416.505l185.706,92.852c2.113,1.057,4.405,1.581,6.693,1.581
	c2.737,0,5.467-0.75,7.871-2.235c4.413-2.727,7.099-7.546,7.099-12.734V14.969C463.369,6.702,456.668,0,448.4,0z"/>
<path style="fill:#FF3980;" d="M448.4,1.063H256v416.505l185.706,92.852c2.113,1.057,4.405,1.581,6.693,1.581
	c2.737,0,5.467-0.75,7.871-2.235c4.413-2.727,7.099-7.546,7.099-12.734V16.032C463.369,7.765,456.668,1.063,448.4,1.063z"/>
<path style="fill:#FFDA2D;" d="M366.437,176.439c-1.76-5.419-6.446-9.368-12.083-10.187l-58.685-8.528l-26.245-53.179
	c-2.522-5.109-7.726-8.344-13.423-8.344c-5.698,0-10.902,3.235-13.423,8.345l-26.242,53.178l-58.687,8.528
	c-5.638,0.818-10.323,4.768-12.084,10.188c-1.76,5.419-0.291,11.368,3.789,15.345l42.467,41.391l-10.027,58.444
	c-0.964,5.615,1.345,11.29,5.955,14.641c2.608,1.895,5.696,2.859,8.801,2.859c2.382,0,4.773-0.568,6.964-1.719l52.49-27.591
	l52.494,27.591c2.204,1.159,4.616,1.71,7.012,1.719c8.254-0.016,14.94-6.712,14.94-14.969c0-1.15-0.129-2.268-0.374-3.345
	l-9.885-57.631l42.463-41.392C366.73,187.806,368.198,181.858,366.437,176.439z"/>
<path style="fill:#FF9F00;" d="M366.437,176.439c-1.76-5.419-6.446-9.368-12.083-10.187l-58.685-8.528l-26.245-53.179
	c-2.522-5.109-7.725-8.344-13.423-8.344V279.81l52.494,27.591c2.204,1.159,4.616,1.71,7.012,1.719
	c8.254-0.016,14.94-6.712,14.94-14.969c0-1.15-0.129-2.268-0.374-3.345l-9.885-57.631l42.463-41.392
	C366.73,187.806,368.198,181.858,366.437,176.439z"/>
<g>
</g>
<g>
</g>
<g>
</g>
<g>
</g>
<g>
</g>
<g>
</g>
<g>
</g>
<g>
</g>
<g>
</g>
<g>
</g>
<g>
</g>
<g>
</g>
<g>
</g>
<g>
</g>
<g>
</g>
</svg>
